<?xml version="1.0" encoding="utf-8"?>
<svg id="svg" version="1.1" xmlns="http://www.w3.org/2000/svg" width="400" height="400" viewBox="0, 0, 400,400">
  <g id="svgg">
    <path id="path0" d="M64.564 1.483 C 58.796 5.285,56.858 23.860,61.246 33.283 C 69.764 51.576,95.861 51.576,104.379 33.283 C 108.767 23.860,106.829 5.285,101.061 1.483 C 97.679 -0.747,67.946 -0.747,64.564 1.483 M252.064 1.483 C 243.665 7.020,244.590 31.257,253.542 40.208 C 262.595 49.262,278.030 49.262,287.083 40.208 C 296.035 31.257,296.960 7.020,288.561 1.483 C 285.179 -0.747,255.446 -0.747,252.064 1.483 M23.768 25.284 C 14.253 28.822,7.164 35.249,2.970 44.141 L 0.391 49.609 0.151 71.680 L -0.089 93.750 176.127 93.750 L 352.344 93.750 352.344 72.779 C 352.344 49.189,351.960 46.973,346.436 38.651 C 340.639 29.917,329.461 23.438,320.190 23.438 L 316.406 23.438 316.406 26.789 C 316.406 44.377,300.349 63.589,281.672 68.345 C 254.516 75.261,224.219 53.347,224.219 26.789 L 224.219 23.438 176.563 23.438 L 128.906 23.438 128.906 26.789 C 128.906 53.347,98.609 75.261,71.453 68.345 C 52.776 63.589,36.719 44.377,36.719 26.789 L 36.719 23.438 32.617 23.478 C 30.361 23.501,26.379 24.313,23.768 25.284 M0.183 209.961 L 0.391 302.734 3.035 308.376 C 5.855 314.392,12.761 321.916,17.904 324.576 C 26.742 329.146,21.643 328.906,109.970 328.906 L 190.789 328.906 190.324 325.586 C 177.298 232.526,264.167 163.569,350.977 198.061 C 352.268 198.575,352.344 196.352,352.344 157.896 L 352.344 117.188 176.159 117.188 L -0.025 117.188 0.183 209.961 M111.577 143.359 C 115.121 145.495,117.188 149.092,117.188 153.125 C 117.188 163.522,114.363 164.453,82.813 164.453 C 58.026 164.453,56.503 164.370,54.048 162.891 C 45.136 157.521,47.174 144.652,57.336 142.122 C 63.234 140.653,108.813 141.693,111.577 143.359 M205.327 143.359 C 208.871 145.495,210.938 149.092,210.938 153.125 C 210.938 163.522,208.113 164.453,176.563 164.453 C 151.776 164.453,150.253 164.370,147.798 162.891 C 138.886 157.521,140.924 144.652,151.086 142.122 C 156.984 140.653,202.563 141.693,205.327 143.359 M299.077 143.359 C 302.621 145.495,304.688 149.092,304.688 153.125 C 304.688 163.522,301.863 164.453,270.313 164.453 C 245.526 164.453,244.003 164.370,241.548 162.891 C 232.636 157.521,234.674 144.652,244.836 142.122 C 250.734 140.653,296.313 141.693,299.077 143.359 M111.577 190.234 C 115.121 192.370,117.188 195.967,117.188 200.000 C 117.188 210.397,114.363 211.328,82.813 211.328 C 58.026 211.328,56.503 211.245,54.048 209.766 C 45.136 204.396,47.174 191.527,57.336 188.997 C 63.234 187.528,108.813 188.568,111.577 190.234 M205.327 190.234 C 208.871 192.370,210.938 195.967,210.938 200.000 C 210.938 210.397,208.113 211.328,176.563 211.328 C 151.776 211.328,150.253 211.245,147.798 209.766 C 138.886 204.396,140.924 191.527,151.086 188.997 C 156.984 187.528,202.563 188.568,205.327 190.234 M288.421 212.849 C 207.594 228.154,183.881 332.616,250.029 381.977 C 317.181 432.088,413.453 372.157,398.874 289.319 C 389.938 238.542,338.995 203.273,288.421 212.849 M111.577 237.109 C 115.121 239.245,117.188 242.842,117.188 246.875 C 117.188 257.272,114.363 258.203,82.813 258.203 C 58.026 258.203,56.503 258.120,54.048 256.641 C 45.136 251.271,47.174 238.402,57.336 235.872 C 63.234 234.403,108.813 235.443,111.577 237.109 M311.066 249.023 C 316.385 252.154,316.769 253.802,317.053 274.744 L 317.308 293.629 336.193 293.885 C 359.554 294.201,363.281 295.791,363.281 305.440 C 363.281 315.878,360.498 316.797,328.906 316.797 C 291.536 316.797,294.141 319.402,294.141 282.023 C 294.141 256.751,294.198 255.753,295.785 253.246 C 299.185 247.876,305.944 246.009,311.066 249.023 " stroke="none" fill-rule="evenodd" style="fill: oklch(0.444 0.177 26.9);"/>
  </g>
</svg>